<svg width="482" height="144" viewBox="0 0 482 144" fill="none" xmlns="http://www.w3.org/2000/svg">
<path d="M22.3635 81.6C19.3768 83.3067 16.7742 83.52 14.5555 82.24C12.3368 80.96 11.2275 78.6133 11.2275 75.2V44.48C11.2275 42.176 11.7395 39.7867 12.7635 37.312C13.7875 34.752 15.1528 32.4053 16.8595 30.272C18.5662 28.0533 20.4008 26.3893 22.3635 25.28L50.0115 9.27999C52.9128 7.57333 55.4728 7.35999 57.6915 8.63999C59.9955 9.92 61.1475 12.2667 61.1475 15.68V33.6L50.0115 40V22.08L22.3635 38.08V68.8L50.0115 52.8C52.9128 51.0933 55.4728 50.88 57.6915 52.16C59.9955 53.44 61.1475 55.7867 61.1475 59.2V89.92C61.1475 92.1387 60.5928 94.528 59.4835 97.088C58.4595 99.648 57.0942 102.037 55.3875 104.256C53.7662 106.389 51.9742 108.011 50.0115 109.12L22.3635 125.12C19.3768 126.827 16.7742 127.04 14.5555 125.76C12.3368 124.48 11.2275 122.133 11.2275 118.72V105.92L22.3635 99.52V112.32L50.0115 96.32V65.6L22.3635 81.6ZM50.0115 65.6V96.32L38.8755 89.92V59.2L50.0115 65.6ZM50.0115 96.32L22.3635 112.32L11.2275 105.92L38.8755 89.92L50.0115 96.32ZM50.0115 22.08V40L38.8755 33.6V15.68L50.0115 22.08ZM22.3635 99.52L11.2275 105.92L0.0914941 99.52L11.2275 93.12L22.3635 99.52ZM11.2275 105.92V118.72C11.2275 122.133 12.3368 124.48 14.5555 125.76L3.41949 119.36C1.20083 118.08 0.0914941 115.733 0.0914941 112.32V99.52L11.2275 105.92ZM57.8195 52.16C55.5155 50.88 52.9128 51.0933 50.0115 52.8L22.3635 68.8L11.2275 62.4L38.8755 46.4C41.8622 44.6933 44.4648 44.48 46.6835 45.76L57.8195 52.16ZM57.8195 8.63999C55.5155 7.35999 52.9128 7.57333 50.0115 9.27999L22.3635 25.28C20.4008 26.3893 18.5662 28.0533 16.8595 30.272C15.1528 32.4053 13.7875 34.752 12.7635 37.312C11.7395 39.7867 11.2275 42.176 11.2275 44.48V75.2C11.2275 78.6133 12.3368 80.96 14.5555 82.24L3.41949 75.84C1.20083 74.56 0.0914941 72.2133 0.0914941 68.8V38.08C0.0914941 35.776 0.603494 33.3867 1.62749 30.912C2.65149 28.352 4.01683 26.0053 5.72349 23.872C7.43016 21.6533 9.26483 19.9893 11.2275 18.88L38.8755 2.88C41.8622 1.17333 44.4648 0.959994 46.6835 2.24L57.8195 8.63999ZM99.0965 44.48L110.232 38.08C113.134 36.3733 115.694 36.16 117.912 37.44C120.131 38.72 121.24 41.0667 121.24 44.48V88C121.24 90.2187 120.728 92.608 119.704 95.168C118.68 97.728 117.315 100.117 115.608 102.336C113.987 104.469 112.195 106.091 110.232 107.2L88.0885 120V136.64L76.9525 143.04V57.28L88.0885 50.88V63.68C88.0885 61.376 88.6005 58.9867 89.6245 56.512C90.6485 53.952 91.9712 51.6053 93.5925 49.472C95.2992 47.2533 97.1338 45.5893 99.0965 44.48ZM110.232 50.88L88.0885 63.68V107.2L110.232 94.4V50.88ZM110.232 50.88V94.4L99.0965 88V44.48L110.232 50.88ZM110.232 94.4L88.0885 107.2L76.9525 100.8L99.0965 88L110.232 94.4ZM117.912 37.44C115.694 36.16 113.134 36.3733 110.232 38.08L99.0965 44.48C97.1338 45.5893 95.2992 47.2533 93.5925 49.472C91.9712 51.6053 90.6485 53.952 89.6245 56.512C88.6005 58.9867 88.0885 61.376 88.0885 63.68L76.9525 57.28C76.9525 54.976 77.4645 52.5867 78.4885 50.112C79.5125 47.552 80.8778 45.2053 82.5845 43.072C84.2912 40.8533 86.1258 39.1893 88.0885 38.08L99.0965 31.68C102.083 29.9733 104.686 29.76 106.904 31.04L117.912 37.44ZM76.9525 57.28V143.04L65.8165 136.64V50.88L76.9525 57.28ZM88.0885 50.88L76.9525 57.28L65.8165 50.88L76.9525 44.48L88.0885 50.88ZM137.052 57.28L170.332 38.08C173.234 36.3733 175.794 36.16 178.012 37.44C180.231 38.72 181.34 41.0667 181.34 44.48V105.92L170.332 112.32V99.52C170.332 101.739 169.82 104.128 168.796 106.688C167.772 109.248 166.407 111.637 164.7 113.856C162.994 115.989 161.159 117.611 159.196 118.72L148.188 125.12C145.202 126.827 142.599 127.04 140.38 125.76C138.162 124.48 137.052 122.133 137.052 118.72V100.8C137.052 98.496 137.564 96.1067 138.588 93.632C139.612 91.072 140.978 88.7253 142.684 86.592C144.391 84.3733 146.226 82.7093 148.188 81.6L170.332 68.8V50.88L137.052 70.08V57.28ZM148.188 112.32L170.332 99.52V81.6L148.188 94.4V112.32ZM170.332 50.88V68.8L159.196 62.4V44.48L170.332 50.88ZM170.332 99.52V112.32L159.196 105.92V93.12L170.332 99.52ZM170.332 81.6V99.52L159.196 93.12V75.2L170.332 81.6ZM170.332 99.52L148.188 112.32L137.052 105.92L159.196 93.12L170.332 99.52ZM170.332 68.8L148.188 81.6C146.226 82.7093 144.391 84.3733 142.684 86.592C140.978 88.7253 139.612 91.072 138.588 93.632C137.564 96.1067 137.052 98.496 137.052 100.8V118.72C137.052 122.133 138.162 124.48 140.38 125.76L129.244 119.36C127.026 118.08 125.916 115.733 125.916 112.32V94.4C125.916 92.096 126.428 89.7067 127.452 87.232C128.476 84.672 129.842 82.3253 131.548 80.192C133.255 77.9733 135.09 76.3093 137.052 75.2L159.196 62.4L170.332 68.8ZM178.012 37.44C175.794 36.16 173.234 36.3733 170.332 38.08L137.052 57.28L125.916 50.88L159.196 31.68C162.183 29.9733 164.786 29.76 167.004 31.04L178.012 37.44ZM137.052 57.28V70.08L125.916 63.68V50.88L137.052 57.28ZM208.288 50.88L230.432 38.08C233.334 36.3733 235.894 36.16 238.112 37.44C240.331 38.72 241.44 41.0667 241.44 44.48V57.28L230.432 63.68V50.88L208.288 63.68V112.32L230.432 99.52V86.72L241.44 80.32V93.12C241.44 95.3387 240.928 97.728 239.904 100.288C238.88 102.848 237.515 105.237 235.808 107.456C234.187 109.589 232.395 111.211 230.432 112.32L208.288 125.12C205.302 126.827 202.699 127.04 200.48 125.76C198.262 124.48 197.152 122.133 197.152 118.72V70.08C197.152 67.776 197.664 65.3867 198.688 62.912C199.712 60.352 201.078 58.0053 202.784 55.872C204.491 53.6533 206.326 51.9893 208.288 50.88ZM241.44 80.32L230.432 86.72L219.296 80.32L230.432 73.92L241.44 80.32ZM230.432 86.72V99.52L219.296 93.12V80.32L230.432 86.72ZM230.432 99.52L208.288 112.32L197.152 105.92L219.296 93.12L230.432 99.52ZM230.432 50.88V63.68L219.296 57.28V44.48L230.432 50.88ZM238.112 37.44C235.894 36.16 233.334 36.3733 230.432 38.08L208.288 50.88C206.326 51.9893 204.491 53.6533 202.784 55.872C201.078 58.0053 199.712 60.352 198.688 62.912C197.664 65.3867 197.152 67.776 197.152 70.08V118.72C197.152 122.133 198.262 124.48 200.48 125.76L189.344 119.36C187.126 118.08 186.016 115.733 186.016 112.32V63.68C186.016 61.376 186.528 58.9867 187.552 56.512C188.576 53.952 189.942 51.6053 191.648 49.472C193.355 47.2533 195.19 45.5893 197.152 44.48L219.296 31.68C222.283 29.9733 224.886 29.76 227.104 31.04L238.112 37.44ZM268.388 50.88L290.532 38.08C293.434 36.3733 295.994 36.16 298.212 37.44C300.431 38.72 301.54 41.0667 301.54 44.48V63.68C301.54 65.8987 301.028 68.288 300.004 70.848C298.98 73.408 297.615 75.7973 295.908 78.016C294.287 80.1493 292.495 81.7707 290.532 82.88L279.396 89.28C276.495 90.9867 273.935 91.2 271.716 89.92C269.498 88.64 268.388 86.2933 268.388 82.88V112.32L301.54 93.12V105.92L268.388 125.12C265.402 126.827 262.799 127.04 260.58 125.76C258.362 124.48 257.252 122.133 257.252 118.72V70.08C257.252 67.776 257.764 65.3867 258.788 62.912C259.812 60.352 261.178 58.0053 262.884 55.872C264.591 53.6533 266.426 51.9893 268.388 50.88ZM290.532 50.88L268.388 63.68V82.88L290.532 70.08V50.88ZM301.54 93.12L268.388 112.32L257.252 105.92L290.532 86.72L301.54 93.12ZM290.532 50.88V70.08L279.396 63.68V44.48L290.532 50.88ZM268.388 82.88C268.388 86.2933 269.498 88.64 271.716 89.92L260.58 83.52C258.362 82.24 257.252 79.8933 257.252 76.48L268.388 82.88ZM290.532 70.08L268.388 82.88L257.252 76.48L279.396 63.68L290.532 70.08ZM298.212 37.44C295.994 36.16 293.434 36.3733 290.532 38.08L268.388 50.88C266.426 51.9893 264.591 53.6533 262.884 55.872C261.178 58.0053 259.812 60.352 258.788 62.912C257.764 65.3867 257.252 67.776 257.252 70.08V118.72C257.252 122.133 258.362 124.48 260.58 125.76L249.444 119.36C247.226 118.08 246.116 115.733 246.116 112.32V63.68C246.116 61.376 246.628 58.9867 247.652 56.512C248.676 53.952 250.042 51.6053 251.748 49.472C253.455 47.2533 255.29 45.5893 257.252 44.48L279.396 31.68C282.383 29.9733 284.986 29.76 287.204 31.04L298.212 37.44ZM328.488 50.88L350.632 38.08C353.534 36.3733 356.094 36.16 358.312 37.44C360.531 38.72 361.64 41.0667 361.64 44.48V63.68C361.64 65.8987 361.128 68.288 360.104 70.848C359.08 73.408 357.715 75.7973 356.008 78.016C354.387 80.1493 352.595 81.7707 350.632 82.88L339.496 89.28C336.595 90.9867 334.035 91.2 331.816 89.92C329.598 88.64 328.488 86.2933 328.488 82.88V112.32L361.64 93.12V105.92L328.488 125.12C325.502 126.827 322.899 127.04 320.68 125.76C318.462 124.48 317.352 122.133 317.352 118.72V70.08C317.352 67.776 317.864 65.3867 318.888 62.912C319.912 60.352 321.278 58.0053 322.984 55.872C324.691 53.6533 326.526 51.9893 328.488 50.88ZM350.632 50.88L328.488 63.68V82.88L350.632 70.08V50.88ZM361.64 93.12L328.488 112.32L317.352 105.92L350.632 86.72L361.64 93.12ZM350.632 50.88V70.08L339.496 63.68V44.48L350.632 50.88ZM328.488 82.88C328.488 86.2933 329.598 88.64 331.816 89.92L320.68 83.52C318.462 82.24 317.352 79.8933 317.352 76.48L328.488 82.88ZM350.632 70.08L328.488 82.88L317.352 76.48L339.496 63.68L350.632 70.08ZM358.312 37.44C356.094 36.16 353.534 36.3733 350.632 38.08L328.488 50.88C326.526 51.9893 324.691 53.6533 322.984 55.872C321.278 58.0053 319.912 60.352 318.888 62.912C317.864 65.3867 317.352 67.776 317.352 70.08V118.72C317.352 122.133 318.462 124.48 320.68 125.76L309.544 119.36C307.326 118.08 306.216 115.733 306.216 112.32V63.68C306.216 61.376 306.728 58.9867 307.752 56.512C308.776 53.952 310.142 51.6053 311.848 49.472C313.555 47.2533 315.39 45.5893 317.352 44.48L339.496 31.68C342.483 29.9733 345.086 29.76 347.304 31.04L358.312 37.44ZM388.589 56L399.597 49.6C402.583 47.8933 405.186 47.68 407.405 48.96C409.623 50.24 410.733 52.5867 410.733 56V24L421.741 17.6V105.92C418.839 107.627 416.279 107.84 414.061 106.56C411.842 105.28 410.733 102.933 410.733 99.52C410.733 101.739 410.221 104.128 409.197 106.688C408.173 109.248 406.807 111.637 405.101 113.856C403.394 115.989 401.559 117.611 399.597 118.72L388.589 125.12C385.602 126.827 382.999 127.04 380.781 125.76C378.562 124.48 377.453 122.133 377.453 118.72V75.2C377.453 72.896 377.965 70.5067 378.989 68.032C380.013 65.472 381.378 63.1253 383.085 60.992C384.791 58.7733 386.626 57.1093 388.589 56ZM388.589 68.8V112.32L410.733 99.52V56L388.589 68.8ZM410.733 99.52C410.733 102.933 411.842 105.28 414.061 106.56L402.925 100.16C400.706 98.88 399.597 96.5333 399.597 93.12L410.733 99.52ZM421.741 17.6L410.733 24L399.597 17.6L410.733 11.2L421.741 17.6ZM410.733 24V56L399.597 49.6V17.6L410.733 24ZM410.733 56V99.52L399.597 93.12V49.6L410.733 56ZM410.733 99.52L388.589 112.32L377.453 105.92L399.597 93.12L410.733 99.52ZM407.405 48.96C405.186 47.68 402.583 47.8933 399.597 49.6L388.589 56C386.626 57.1093 384.791 58.7733 383.085 60.992C381.378 63.1253 380.013 65.472 378.989 68.032C377.965 70.5067 377.453 72.896 377.453 75.2V118.72C377.453 122.133 378.562 124.48 380.781 125.76L369.645 119.36C367.426 118.08 366.317 115.733 366.317 112.32V68.8C366.317 66.496 366.829 64.1067 367.853 61.632C368.877 59.072 370.242 56.7253 371.949 54.592C373.655 52.3733 375.49 50.7093 377.453 49.6L388.589 43.2C391.49 41.4933 394.05 41.28 396.269 42.56L407.405 48.96ZM437.553 62.4L448.689 56V112.32L470.833 99.52V43.2L481.841 36.8V105.92L470.833 112.32V99.52C470.833 101.739 470.321 104.128 469.297 106.688C468.273 109.248 466.907 111.637 465.201 113.856C463.494 115.989 461.659 117.611 459.697 118.72L448.689 125.12C445.702 126.827 443.099 127.04 440.881 125.76C438.662 124.48 437.553 122.133 437.553 118.72V62.4ZM470.833 99.52V112.32L459.697 105.92V93.12L470.833 99.52ZM481.841 36.8L470.833 43.2L459.697 36.8L470.833 30.4L481.841 36.8ZM470.833 43.2V99.52L459.697 93.12V36.8L470.833 43.2ZM448.689 56L437.553 62.4L426.417 56L437.553 49.6L448.689 56ZM470.833 99.52L448.689 112.32L437.553 105.92L459.697 93.12L470.833 99.52ZM437.553 62.4V118.72C437.553 122.133 438.662 124.48 440.881 125.76L429.745 119.36C427.526 118.08 426.417 115.733 426.417 112.32V56L437.553 62.4Z" fill="black"/>
</svg>
